<svg id="visual" viewBox="0 0 900 600" width="900" height="600" xmlns="http://www.w3.org/2000/svg" xmlns:xlink="http://www.w3.org/1999/xlink" version="1.1"><rect x="0" y="0" width="900" height="600" fill="#001220"></rect><path d="M0 393L21.5 386.3C43 379.7 86 366.3 128.8 359.2C171.7 352 214.3 351 257.2 356C300 361 343 372 385.8 374C428.7 376 471.3 369 514.2 371.5C557 374 600 386 642.8 398.2C685.7 410.3 728.3 422.7 771.2 416C814 409.3 857 383.7 878.5 370.8L900 358L900 601L878.5 601C857 601 814 601 771.2 601C728.3 601 685.7 601 642.8 601C600 601 557 601 514.2 601C471.3 601 428.7 601 385.8 601C343 601 300 601 257.2 601C214.3 601 171.7 601 128.8 601C86 601 43 601 21.5 601L0 601Z" fill="#fa7268"></path><path d="M0 438L21.5 434.8C43 431.7 86 425.3 128.8 418.8C171.7 412.3 214.3 405.7 257.2 408.7C300 411.7 343 424.3 385.8 430.8C428.7 437.3 471.3 437.7 514.2 443.2C557 448.7 600 459.3 642.8 462.7C685.7 466 728.3 462 771.2 458.8C814 455.7 857 453.3 878.5 452.2L900 451L900 601L878.5 601C857 601 814 601 771.2 601C728.3 601 685.7 601 642.8 601C600 601 557 601 514.2 601C471.3 601 428.7 601 385.8 601C343 601 300 601 257.2 601C214.3 601 171.7 601 128.8 601C86 601 43 601 21.5 601L0 601Z" fill="#ef5f67"></path><path d="M0 443L21.5 443.7C43 444.3 86 445.7 128.8 445.7C171.7 445.7 214.3 444.3 257.2 451C300 457.7 343 472.3 385.8 477.8C428.7 483.3 471.3 479.7 514.2 480.5C557 481.3 600 486.7 642.8 480.2C685.7 473.7 728.3 455.3 771.2 447.2C814 439 857 441 878.5 442L900 443L900 601L878.5 601C857 601 814 601 771.2 601C728.3 601 685.7 601 642.8 601C600 601 557 601 514.2 601C471.3 601 428.7 601 385.8 601C343 601 300 601 257.2 601C214.3 601 171.7 601 128.8 601C86 601 43 601 21.5 601L0 601Z" fill="#e34c67"></path><path d="M0 490L21.5 493.2C43 496.3 86 502.7 128.8 507.7C171.7 512.7 214.3 516.3 257.2 516.7C300 517 343 514 385.8 511.3C428.7 508.7 471.3 506.3 514.2 508.8C557 511.3 600 518.7 642.8 516.3C685.7 514 728.3 502 771.2 502.5C814 503 857 516 878.5 522.5L900 529L900 601L878.5 601C857 601 814 601 771.2 601C728.3 601 685.7 601 642.8 601C600 601 557 601 514.2 601C471.3 601 428.7 601 385.8 601C343 601 300 601 257.2 601C214.3 601 171.7 601 128.8 601C86 601 43 601 21.5 601L0 601Z" fill="#d53867"></path><path d="M0 552L21.5 550.5C43 549 86 546 128.8 542.8C171.7 539.7 214.3 536.3 257.2 540.2C300 544 343 555 385.8 559.8C428.7 564.7 471.3 563.3 514.2 563.3C557 563.3 600 564.7 642.8 561.2C685.7 557.7 728.3 549.3 771.2 547.2C814 545 857 549 878.5 551L900 553L900 601L878.5 601C857 601 814 601 771.2 601C728.3 601 685.7 601 642.8 601C600 601 557 601 514.2 601C471.3 601 428.7 601 385.8 601C343 601 300 601 257.2 601C214.3 601 171.7 601 128.8 601C86 601 43 601 21.5 601L0 601Z" fill="#c62368"></path></svg>